<?xml version='1.0' encoding='utf-8'?>
<svg xmlns="http://www.w3.org/2000/svg" xmlns:xlink="http://www.w3.org/1999/xlink" class="typst-doc" viewBox="0 0 24 24">
    <defs id="glyph">
        <symbol id="g4A26FDD56638B3BDFDBACE120C4E2FD0" overflow="visible">
            <path d="M 0 0m 12.648 8.952 c 0 1.1040001 -1.0799999 1.6560001 -2.2799997 1.6560001 c -1.0319996 0 -1.8479996 -0.55200005 -2.4720001 -1.6560001 c -0.5039997 1.1040001 -1.3439999 1.6560001 -2.5679998 1.6560001 c -1.1760001 0 -2.1360002 -0.55200005 -2.904 -1.632 c -0.648 -0.9359999 -0.98399997 -1.632 -0.98399997 -2.0879998 c 0 -0.21600008 0.120000005 -0.33599997 0.36 -0.33599997 c 0.21599996 0 0.36 0.119999886 0.40799987 0.33599997 c 0.4560001 1.3919997 1.464 3.0239997 3.0720003 3.0239997 c 0.7919998 0 1.1759996 -0.5039997 1.1759996 -1.4879999 c 0 -0.5039997 -0.43199968 -2.376 -1.2719998 -5.592 c -0.408 -1.608 -1.1279998 -2.4 -2.16 -2.4 c -0.33599997 0 -0.648 0.072 -0.91199994 0.192 c 0.6240001 0.24000001 0.9360001 0.672 0.9360001 1.296 c 0 0.62399983 -0.31200004 0.9359999 -0.96000004 0.9359999 c -0.79200006 0 -1.3920001 -0.67199993 -1.3920001 -1.464 c 0 -1.104 1.128 -1.6559999 2.304 -1.6559999 c 1.0079999 0 1.8239999 0.552 2.4720001 1.6559999 c 0.45599985 -1.104 1.3200002 -1.6559999 2.5679998 -1.6559999 c 1.1520004 0 2.1120005 0.552 2.88 1.632 c 0.64799976 0.9359999 0.9840002 1.632 0.9840002 2.088 c 0 0.21599984 -0.119999886 0.33599997 -0.3600006 0.33599997 c -0.2159996 0 -0.3359995 -0.120000124 -0.408 -0.33599997 c -0.408 -1.368 -1.4879999 -3.0240002 -3.0479994 -3.0240002 c -0.7920003 0 -1.2000003 0.48 -1.2000003 1.464 c 0 0.31199992 0.119999886 0.9840001 0.38399982 2.0640001 l 0.81600046 3.2400002 c 0.45599937 1.7999997 1.1999998 2.7119994 2.2559996 2.7119994 c 0.33600044 0 0.64799976 -0.07199955 0.91200066 -0.19199944 c -0.6480007 -0.21600056 -0.96000004 -0.64799976 -0.96000004 -1.2960005 c 0 -0.6239996 0.3359995 -0.9359999 0.98399925 -0.9359999 c 0.7680006 0 1.368 0.6960001 1.368 1.4639997 Z " />
        </symbol>
        <symbol id="gE5FB1C684C875A472016DBDF3BD5F4C2" overflow="visible">
            <path d="M 0 0m 3.912 10.608 c -1.0799999 0 -1.92 -0.5999994 -2.52 -1.8000002 c -0.45599997 -0.9359994 -0.696 -1.5839996 -0.696 -1.9439998 c 0 -0.2159996 0.120000005 -0.33599997 0.38400006 -0.33599997 c 0.33599997 0 0.36 0.14400005 0.45599997 0.5040002 c 0.55200005 1.8960004 1.3199999 2.8560004 2.3040001 2.8560004 c 0.3119998 0 0.48000002 -0.21600056 0.48000002 -0.6480007 c 0 -0.38399982 -0.12000036 -0.9359999 -0.38400006 -1.6319995 c -0.9120002 -2.4720001 -1.368 -4.1280003 -1.368 -5.0160003 c 0 -1.824 1.128 -2.904 2.976 -2.904 c 0.7919998 0 1.5359998 0.28800002 2.2079997 0.86399996 c -0.8399997 -3.168 -2.1599998 -4.752 -3.9599998 -4.752 c -0.816 0 -1.368 0.2639997 -1.6560001 0.7919998 c 0.96000004 0.04799986 1.44 0.50399995 1.44 1.368 c 0 0.5999999 -0.31200004 0.91199994 -0.96000004 0.91199994 c -0.8879999 0 -1.4159999 -0.74399996 -1.4159999 -1.632 c 0 -1.3199999 1.2 -2.16 2.592 -2.16 c 2.76 0 5.016 2.5440001 5.616 4.896 l 2.2560005 9.0720005 c 0.07199955 0.26399994 0.09599972 0.45599937 0.09599972 0.5760002 c 0 0.47999954 -0.26399994 0.7199993 -0.7680006 0.7199993 c -0.38399982 0 -0.69599915 -0.19199944 -0.9119997 -0.55200005 c -0.14400005 -0.5039997 -0.26399994 -0.9359999 -0.3359995 -1.2959995 l -1.5360003 -6.168 c -0.24000025 -0.8640001 -1.5120001 -1.944 -2.592 -1.944 c -0.9120002 0 -1.368 0.6 -1.368 1.8239999 c 0 1.0080001 0.408 2.544 1.1999998 4.608 c 0.31200027 0.84000015 0.48000002 1.4160004 0.48000002 1.7519999 c 0 1.1760006 -0.84000015 2.04 -2.016 2.04 Z " />
        </symbol>
    </defs>
<g transform="translate(8.1592, 2.0000) scale(0.414594)"><g>
        <g class="typst-text" transform="matrix(1 0 0 -1 2.4000000000000004 10.608)">
            <use xlink:href="#g4A26FDD56638B3BDFDBACE120C4E2FD0" x="0" y="0" fill="currentColor" fill-rule="nonzero" />
        </g>
        <g class="typst-text" transform="matrix(1 0 0 -1 3.048 43.32000000000001)">
            <use xlink:href="#gE5FB1C684C875A472016DBDF3BD5F4C2" x="0" y="0" fill="currentColor" fill-rule="nonzero" />
        </g>
        <path class="typst-shape" fill="none" stroke="#000000" stroke-width="1.152" stroke-linecap="butt" stroke-linejoin="miter" stroke-miterlimit="4" transform="matrix(1 0 0 1 2.4000000000000004 20.856000000000005)" d="M 0 0h 13.728 " />
    </g>
    </g></svg>