<?xml version='1.0' encoding='utf-8'?>
<svg xmlns="http://www.w3.org/2000/svg" xmlns:xlink="http://www.w3.org/1999/xlink" class="typst-doc" viewBox="0 0 24 24">
    <defs id="glyph">
        <symbol id="g4A26FDD56638B3BDFDBACE120C4E2FD0" overflow="visible">
            <path d="M 0 0m 12.648 8.952 c 0 1.1040001 -1.0799999 1.6560001 -2.2799997 1.6560001 c -1.0319996 0 -1.8479996 -0.55200005 -2.4720001 -1.6560001 c -0.5039997 1.1040001 -1.3439999 1.6560001 -2.5679998 1.6560001 c -1.1760001 0 -2.1360002 -0.55200005 -2.904 -1.632 c -0.648 -0.9359999 -0.98399997 -1.632 -0.98399997 -2.0879998 c 0 -0.21600008 0.120000005 -0.33599997 0.36 -0.33599997 c 0.21599996 0 0.36 0.119999886 0.40799987 0.33599997 c 0.4560001 1.3919997 1.464 3.0239997 3.0720003 3.0239997 c 0.7919998 0 1.1759996 -0.5039997 1.1759996 -1.4879999 c 0 -0.5039997 -0.43199968 -2.376 -1.2719998 -5.592 c -0.408 -1.608 -1.1279998 -2.4 -2.16 -2.4 c -0.33599997 0 -0.648 0.072 -0.91199994 0.192 c 0.6240001 0.24000001 0.9360001 0.672 0.9360001 1.296 c 0 0.62399983 -0.31200004 0.9359999 -0.96000004 0.9359999 c -0.79200006 0 -1.3920001 -0.67199993 -1.3920001 -1.464 c 0 -1.104 1.128 -1.6559999 2.304 -1.6559999 c 1.0079999 0 1.8239999 0.552 2.4720001 1.6559999 c 0.45599985 -1.104 1.3200002 -1.6559999 2.5679998 -1.6559999 c 1.1520004 0 2.1120005 0.552 2.88 1.632 c 0.64799976 0.9359999 0.9840002 1.632 0.9840002 2.088 c 0 0.21599984 -0.119999886 0.33599997 -0.3600006 0.33599997 c -0.2159996 0 -0.3359995 -0.120000124 -0.408 -0.33599997 c -0.408 -1.368 -1.4879999 -3.0240002 -3.0479994 -3.0240002 c -0.7920003 0 -1.2000003 0.48 -1.2000003 1.464 c 0 0.31199992 0.119999886 0.9840001 0.38399982 2.0640001 l 0.81600046 3.2400002 c 0.45599937 1.7999997 1.1999998 2.7119994 2.2559996 2.7119994 c 0.33600044 0 0.64799976 -0.07199955 0.91200066 -0.19199944 c -0.6480007 -0.21600056 -0.96000004 -0.64799976 -0.96000004 -1.2960005 c 0 -0.6239996 0.3359995 -0.9359999 0.98399925 -0.9359999 c 0.7680006 0 1.368 0.6960001 1.368 1.4639997 Z " />
        </symbol>
        <symbol id="g744ACE2CD131A3A892539E0D81DC8E87" overflow="visible">
            <path d="M 0 0m 8.8032 7.2408 c -0.33600044 0 -0.5880003 -0.1512003 -0.73919964 -0.4368 c -0.033600807 -0.050400257 -0.11760044 -0.3696003 -0.26880026 -0.97440004 l -1.0079999 -4.032 c -0.11760044 -0.18480003 -0.2184 -0.3528 -0.33600044 -0.4871999 c -0.53759956 -0.62160003 -1.0919995 -0.924 -1.6463995 -0.924 c -0.70560026 0 -1.0584002 0.4368 -1.0584002 1.3104 c 0 0.6215999 0.2856002 1.6968 0.8736 3.1919997 c 0.18480015 0.5040002 0.2855997 0.8568001 0.2855997 1.0416002 c 0 0.8736 -0.75599957 1.4783998 -1.6295998 1.4783998 c -0.8063998 0 -1.4447999 -0.40319967 -1.9151999 -1.2096 c -0.38639992 -0.6552 -0.57119995 -1.1255999 -0.57119995 -1.3943996 c 0 -0.18480015 0.117600024 -0.2856002 0.35279995 -0.2856002 c 0.18480003 0 0.3024 0.10080004 0.3528 0.31920004 c 0.38639998 1.3104 0.97440004 1.9656 1.7303998 1.9656 c 0.2184 0 0.3360002 -0.16800022 0.3360002 -0.5040002 c 0 -0.25199986 -0.067200184 -0.55439997 -0.2184 -0.9407997 c -0.35280013 -0.89039993 -0.55439997 -1.4448001 -0.6384001 -1.6632001 c -0.2184 -0.6552 -0.31920004 -1.2432001 -0.31920004 -1.7304 c 0 -1.428 0.924 -2.1671999 2.352 -2.1671999 c 0.62160015 0 1.1760001 0.20159999 1.6967998 0.6216 c -0.25199986 -0.9576 -0.5879998 -1.6967999 -1.0247998 -2.2175999 c -0.60479975 -0.6888 -1.2431998 -1.0248 -1.9319999 -1.0248 c -0.5207999 0 -0.90719986 0.13439989 -1.1424 0.41999984 c 0.4704001 0.1176002 0.8568001 0.43680012 0.8568001 0.97440004 c 0 0.4536 -0.23519993 0.6888 -0.72239995 0.6888 c -0.6048 0 -1.0248001 -0.55439997 -1.0248001 -1.1592 c 0 -0.99119985 0.97440004 -1.5287999 2.0328 -1.5287999 c 0.9912002 0 1.8816001 0.33599997 2.7048 0.9912 c 0.8232002 0.6551999 1.3439999 1.4784 1.5791998 2.4359999 l 1.5791998 6.2664 c 0.050400734 0.18479967 0.06720066 0.3024001 0.06720066 0.38639975 c 0 0.33599997 -0.26880074 0.5880003 -0.6048002 0.5880003 Z " />
        </symbol>
    </defs>
<g transform="translate(3.1981, 3.0000) scale(0.705550)"><g>
        <g class="typst-text" transform="matrix(1 0 0 -1 0 16.1208)">
            <use xlink:href="#g4A26FDD56638B3BDFDBACE120C4E2FD0" x="0" y="0" fill="currentColor" fill-rule="nonzero" />
        </g>
        <g class="typst-text" transform="matrix(1 0 0 -1 13.728 7.4088)">
            <use xlink:href="#g744ACE2CD131A3A892539E0D81DC8E87" x="0" y="0" fill="currentColor" fill-rule="nonzero" />
        </g>
    </g>
    </g></svg>